<?xml version="1.0" encoding="utf-8"?>
<!-- Generator: Adobe Illustrator 14.0.0, SVG Export Plug-In . SVG Version: 6.00 Build 43363)  -->
<!DOCTYPE svg PUBLIC "-//W3C//DTD SVG 1.1//EN" "http://www.w3.org/Graphics/SVG/1.1/DTD/svg11.dtd">
<svg version="1.1" id="Layer_1" xmlns="http://www.w3.org/2000/svg" xmlns:xlink="http://www.w3.org/1999/xlink" x="0px" y="0px"
	 width="50px" height="50px" viewBox="-30 -30 80 80" enable-background="new -30 -30 80 80" xml:space="preserve">
<path id="rear-whl" fill="#EAEAEA" d="M-12.688,3.107c8.035,0,14.557,6.521,14.557,14.557c0,8.035-6.521,14.559-14.557,14.559
	c-8.038,0-14.562-6.523-14.562-14.559C-27.25,9.627-20.726,3.107-12.688,3.107z M-24.599,17.945c0,6.582,5.326,11.912,11.911,11.912
	c6.582,0,11.926-5.33,11.926-11.912c0-6.58-5.344-11.913-11.926-11.913C-19.263,6.032-24.599,11.365-24.599,17.945z"/>
<path id="front-whl" fill="#EAEAEA" d="M32.467,3.532c8.037,0,14.558,6.521,14.558,14.552c0,8.051-6.524,14.562-14.562,14.562
	c-8.039,0-14.562-6.52-14.562-14.562C17.9,10.053,24.428,3.532,32.467,3.532z M20.549,18.373c0,6.576,5.332,11.92,11.914,11.92
	c6.58,0,11.912-5.344,11.912-11.92c0-6.588-5.332-11.916-11.912-11.916C25.881,6.458,20.549,11.785,20.549,18.373z"/>
<line id="fork" fill="none" stroke="#EAEAEA" stroke-width="3.0948" x1="23.334" y1="-12.197" x2="32.76" y2="18.316"/>
<line id="downtube" fill="none" stroke="#EAEAEA" stroke-width="3.0948" x1="8.772" y1="18.176" x2="26.507" y2="-2.689"/>
<line id="chainstay" fill="none" stroke="#EAEAEA" stroke-width="3.0948" x1="-14.322" y1="18.648" x2="7.284" y2="18.502"/>
<line id="reartriangle" fill="none" stroke="#EAEAEA" stroke-width="3.0948" x1="1.869" y1="-2.689" x2="-13.008" y2="18.035"/>
<line id="seattube" fill="none" stroke="#EAEAEA" stroke-width="3.0948" x1="0.185" y1="-7.794" x2="8.596" y2="19.535"/>
<line id="toptube" fill="none" stroke="#EAEAEA" stroke-width="3.0948" x1="1.869" y1="-2.689" x2="26.507" y2="-2.682"/>
<line id="saddle" fill="none" stroke="#EAEAEA" stroke-width="3.0948" x1="-4.95" y1="-8.158" x2="5.898" y2="-8.295"/>
<line id="handlebar" fill="none" stroke="#EAEAEA" stroke-width="3.0948" x1="13.794" y1="-12.8" x2="24.206" y2="-11.141"/>
</svg>
