<?xml version="1.0" encoding="utf-8"?>
<!-- Generator: Adobe Illustrator 14.0.0, SVG Export Plug-In . SVG Version: 6.00 Build 43363)  -->
<!DOCTYPE svg PUBLIC "-//W3C//DTD SVG 1.1//EN" "http://www.w3.org/Graphics/SVG/1.1/DTD/svg11.dtd">
<svg version="1.1" id="ped" xmlns="http://www.w3.org/2000/svg" xmlns:xlink="http://www.w3.org/1999/xlink" x="0px" y="0px"
	 width="50px" height="50px" viewBox="0 0 80 80" enable-background="new 0 0 80 80" xml:space="preserve">
<path fill="#EAEAEA" d="M69,33.5l-4-1l-6.125-16h-37.5l-4.875,16l-3.25,1c-2.057,0.574-4,1.791-4,4l1,13.25c0,2.209,1.791,4,4,4
	h2.84L17.75,63H26v-8.25h30.75V63H65l0.66-8.25H68c2.209,0,4-1.791,4-4l1-13.25C73,35.291,71.093,34.094,69,33.5z M25.333,43.408
	H13.417v-5.575h11.917V43.408z M50.94,49.251H31.311l-1.024-2.516h21.677L50.94,49.251z M51.716,44.884H30.534l-1.185-2.683H52.9
	L51.716,44.884z M52.482,40.518H29.769l-1.185-2.684h25.083L52.482,40.518z M22.25,31.875l3-11.125h30.084l3.541,11.125H22.25z
	 M68.667,43.408H56.75v-5.575h11.917V43.408z"/>
</svg>
