<?xml version="1.0" encoding="utf-8"?>
<!-- Generator: Adobe Illustrator 14.0.0, SVG Export Plug-In . SVG Version: 6.00 Build 43363)  -->
<!DOCTYPE svg PUBLIC "-//W3C//DTD SVG 1.1 Tiny//EN" "http://www.w3.org/Graphics/SVG/1.1/DTD/svg11-tiny.dtd">
<svg version="1.1" baseProfile="tiny" id="ped" xmlns="http://www.w3.org/2000/svg" xmlns:xlink="http://www.w3.org/1999/xlink"
	 x="0px" y="0px" width="30px" height="30px" viewBox="-4 0 20 20" xml:space="preserve">
<path id="body" fill="#EAEAEA" d="M14.031,7.656C15.25,8.812,16.879,9.134,16.507,10c-0.401,0.938-2.319,0-4.788-2.75
	c-0.238,1.021-0.427,1.667-0.869,3.106c1.172,0.769,2.719,2.251,3.289,3.533c0.896,2.486,1.486,4.646,0.021,4.646
	c-1.25,0-1.229-1.473-1.83-3.66c-0.487-1.213-1.721-2.083-2.951-3.104c-0.16,2.721-0.987,3.953-2.378,5.197
	c-1.391,1.245-2.28,2.072-2.938,0.928c-0.622-1.084,0.958-1.709,2.289-3.129c1.293-1.379,0.39-2.871,0.983-4.309
	C7.716,9.537,8.354,7.5,8.782,6.285C7.637,6.794,7.229,6.729,6.271,8.208c-0.786,1.212-1.104,2.563-1.917,1.917
	C3.793,9.679,4.667,8.521,5.583,7.104c1.045-1.615,3.5-2.763,4.948-2.761C12.502,4.347,12.66,6.355,14.031,7.656z"/>
<path id="head" fill="#EAEAEA" d="M11.368,0.843c2.478,0,2.116,2.961-0.028,2.961C9.111,3.804,9.426,0.843,11.368,0.843z"/>
</svg>
